<svg width="32" height="29" viewBox="0 0 32 29" fill="none" xmlns="http://www.w3.org/2000/svg">
<path d="M29.7991 1.02821C28.393 0.271091 26.8247 1.73126 25.9053 2.59654C23.7963 4.65159 22.0116 7.03113 20.0105 9.19434C17.7932 11.5739 15.7382 13.9534 13.4668 16.2789C12.1689 17.5769 10.7628 18.983 9.89753 20.6054C7.95064 18.7125 6.27415 16.6574 4.11093 14.981C2.54261 13.7913 -0.0532486 12.926 0.000831709 15.7922C0.108992 19.5239 3.40789 23.5258 5.8415 26.0675C6.86903 27.1491 8.22104 28.2848 9.78937 28.3389C11.6822 28.447 13.6291 26.1756 14.7648 24.9318C16.7658 22.7686 18.3882 20.3349 20.2269 18.1177C22.6064 15.1973 25.04 12.331 27.3655 9.35658C28.8256 7.51785 33.4225 2.97502 29.7991 1.02821ZM2.38028 15.5759C2.3262 15.5759 2.27212 15.5759 2.16396 15.6299C1.94763 15.5759 1.78539 15.5217 1.56907 15.4136C1.73131 15.3054 2.00171 15.3595 2.38028 15.5759Z" fill="white"/>
</svg>
