<svg width="44" height="44" viewBox="0 0 44 44" fill="none" xmlns="http://www.w3.org/2000/svg">
<g clip-path="url(#clip0)">
<path d="M30.2487 43.9993H6.41536C3.88903 43.9993 1.83203 41.9423 1.83203 39.416V13.7493C1.83203 11.223 3.88903 9.16602 6.41536 9.16602H8.2487C8.7547 9.16602 9.16536 9.57668 9.16536 10.0827C9.16536 10.5887 8.7547 10.9993 8.2487 10.9993H6.41536C4.8992 10.9993 3.66536 12.2332 3.66536 13.7493V39.416C3.66536 40.9322 4.8992 42.166 6.41536 42.166H30.2487C31.7649 42.166 32.9987 40.9322 32.9987 39.416V37.5827C32.9987 37.0767 33.4094 36.666 33.9154 36.666C34.4214 36.666 34.832 37.0767 34.832 37.5827V39.416C34.832 41.9423 32.775 43.9993 30.2487 43.9993Z" fill="#8B8B8B"/>
<path d="M37.582 33H17.4154C14.889 33 12.832 30.943 12.832 28.4167V4.58333C12.832 2.057 14.889 0 17.4154 0H37.582C40.1084 0 42.1654 2.057 42.1654 4.58333V28.4167C42.1654 30.943 40.1084 33 37.582 33ZM17.4154 1.83333C15.8992 1.83333 14.6654 3.06717 14.6654 4.58333V28.4167C14.6654 29.9328 15.8992 31.1667 17.4154 31.1667H37.582C39.0982 31.1667 40.332 29.9328 40.332 28.4167V4.58333C40.332 3.06717 39.0982 1.83333 37.582 1.83333H17.4154Z" fill="#8B8B8B"/>
</g>
<defs>
<clipPath id="clip0">
<rect width="44" height="44" fill="white"/>
</clipPath>
</defs>
</svg>
