<svg width="66" height="86" viewBox="0 0 66 86" fill="none" xmlns="http://www.w3.org/2000/svg">
<path d="M26.766 32.0312H8.88477C8.31295 32.0312 7.84961 31.5679 7.84961 30.9961C7.84961 30.4243 8.31295 29.9609 8.88477 29.9609H26.766C27.3379 29.9609 27.8012 30.4243 27.8012 30.9961C27.8012 31.5679 27.3379 32.0312 26.766 32.0312Z" fill="#7F51C1"/>
<path d="M26.7661 58.0977H8.88477C8.31295 58.0977 7.84961 57.6343 7.84961 57.0625C7.84961 56.4907 8.31295 56.0273 8.88477 56.0273H26.7661C27.3379 56.0273 27.8012 56.4907 27.8012 57.0625C27.8012 57.6343 27.3379 58.0977 26.7661 58.0977Z" fill="#7F51C1"/>
<path d="M57.1799 77.931V9.07031C57.1799 8.49849 56.7165 8.03516 56.1447 8.03516H1.74805C1.17623 8.03516 0.712891 8.49849 0.712891 9.07031V77.931C0.712891 78.5028 1.17623 78.9661 1.74805 78.9661H56.1447C56.7165 78.9661 57.1799 78.5024 57.1799 77.931ZM55.1095 76.8958H2.7832V10.1055H55.1095V76.8958Z" fill="#7F51C1"/>
<path d="M60.7626 12.596C60.7253 12.025 60.2322 11.5932 59.6616 11.6312C59.091 11.6685 58.6592 12.1612 58.6964 12.7318L63.1509 80.4107L10.9376 83.8475L10.7774 81.4173C10.7401 80.8467 10.2486 80.4149 9.67641 80.4526C9.10583 80.4898 8.67396 80.9826 8.71123 81.5531L8.93938 85.0164C8.9754 85.5638 9.43087 85.9836 9.97122 85.9836C9.99399 85.9836 10.0172 85.9828 10.0404 85.9811L64.3194 82.4082C64.89 82.3709 65.3219 81.8782 65.2846 81.3076L60.7626 12.596Z" fill="#7F51C1"/>
<path d="M24.0059 49.8438H42.5029C43.0747 49.8438 43.538 49.3804 43.538 48.8086C43.538 48.2368 43.0747 47.7734 42.5029 47.7734H24.0059C23.434 47.7734 22.9707 48.2368 22.9707 48.8086C22.9707 49.3804 23.434 49.8438 24.0059 49.8438Z" fill="#7F51C1"/>
<path d="M8.88477 49.8438H19.8649C20.4367 49.8438 20.9 49.3804 20.9 48.8086C20.9 48.2368 20.4367 47.7734 19.8649 47.7734H8.88477C8.31295 47.7734 7.84961 48.2368 7.84961 48.8086C7.84961 49.3804 8.31295 49.8438 8.88477 49.8438Z" fill="#7F51C1"/>
<path d="M35.375 43.3867C35.375 43.9585 35.8383 44.4219 36.4102 44.4219H48.5931C49.1649 44.4219 49.6283 43.9585 49.6283 43.3867C49.6283 42.8149 49.1649 42.3516 48.5931 42.3516H36.4102C35.8383 42.3516 35.375 42.8149 35.375 43.3867Z" fill="#7F51C1"/>
<path d="M8.88477 44.4219H32.2702C32.842 44.4219 33.3053 43.9585 33.3053 43.3867C33.3053 42.8149 32.842 42.3516 32.2702 42.3516H8.88477C8.31295 42.3516 7.84961 42.8149 7.84961 43.3867C7.84961 43.9585 8.31295 44.4219 8.88477 44.4219Z" fill="#7F51C1"/>
<path d="M22.2109 37.9688C22.2109 38.5406 22.6743 39.0039 23.2461 39.0039H45.4142C45.986 39.0039 46.4493 38.5406 46.4493 37.9688C46.4493 37.3969 45.986 36.9336 45.4142 36.9336H23.2461C22.6743 36.9336 22.2109 37.3969 22.2109 37.9688Z" fill="#7F51C1"/>
<path d="M8.88477 39.0039H19.1063C19.6781 39.0039 20.1415 38.5406 20.1415 37.9688C20.1415 37.3969 19.6781 36.9336 19.1063 36.9336H8.88477C8.31295 36.9336 7.84961 37.3969 7.84961 37.9688C7.84961 38.5406 8.31295 39.0039 8.88477 39.0039Z" fill="#7F51C1"/>
<path d="M48.5951 68.418H36.4121C35.8403 68.418 35.377 68.8813 35.377 69.4531C35.377 70.0249 35.8403 70.4883 36.4121 70.4883H48.5951C49.1669 70.4883 49.6302 70.0249 49.6302 69.4531C49.6302 68.8813 49.1669 68.418 48.5951 68.418Z" fill="#7F51C1"/>
<path d="M8.88477 70.4883H32.2702C32.842 70.4883 33.3053 70.0249 33.3053 69.4531C33.3053 68.8813 32.842 68.418 32.2702 68.418H8.88477C8.31295 68.418 7.84961 68.8813 7.84961 69.4531C7.84961 70.0249 8.31295 70.4883 8.88477 70.4883Z" fill="#7F51C1"/>
<path d="M22.2109 64.0352C22.2109 64.607 22.6743 65.0703 23.2461 65.0703H45.4142C45.986 65.0703 46.4493 64.607 46.4493 64.0352C46.4493 63.4633 45.986 63 45.4142 63H23.2461C22.6743 63 22.2109 63.4633 22.2109 64.0352Z" fill="#7F51C1"/>
<path d="M8.88477 65.0703H19.1063C19.6781 65.0703 20.1415 64.607 20.1415 64.0352C20.1415 63.4633 19.6781 63 19.1063 63H8.88477C8.31295 63 7.84961 63.4633 7.84961 64.0352C7.84961 64.607 8.31295 65.0703 8.88477 65.0703Z" fill="#7F51C1"/>
<path d="M14.7363 23.1953H43.1555C43.7273 23.1953 44.1907 22.732 44.1907 22.1602C44.1907 21.5883 43.7273 21.125 43.1555 21.125H14.7363C14.1645 21.125 13.7012 21.5883 13.7012 22.1602C13.7012 22.732 14.1645 23.1953 14.7363 23.1953Z" fill="#7F51C1"/>
<path d="M13.2123 17.9869C11.5093 17.9869 10.1242 16.6015 10.1242 14.8985V5.5013C10.1242 4.92948 10.5876 4.46615 11.1594 4.46615C11.7312 4.46615 12.1946 4.92948 12.1946 5.5013V14.8985C12.1946 15.4595 12.6513 15.9166 13.2123 15.9166C13.7734 15.9166 14.2301 15.4595 14.2301 14.8985V5.16095C14.2301 3.46743 12.8525 2.08984 11.159 2.08984C9.46589 2.08984 8.08789 3.46743 8.08789 5.16095V12.8455C8.08789 13.4174 7.62455 13.8807 7.05273 13.8807C6.48091 13.8807 6.01758 13.4174 6.01758 12.8455V5.16095C6.01758 2.32586 8.32391 0.0195312 11.159 0.0195312C13.9941 0.0195312 16.3004 2.32586 16.3004 5.16095V14.8985C16.3004 16.6015 14.9154 17.9869 13.2123 17.9869Z" fill="#7F51C1"/>
</svg>
