<svg width="24" height="23" viewBox="0 0 24 23" fill="none" xmlns="http://www.w3.org/2000/svg">
<path d="M22.8726 13.4176L22.8481 13.399L21.2015 12.187C21.0972 12.1096 21.014 12.0101 20.9586 11.8966C20.9033 11.7831 20.8775 11.6589 20.8832 11.5343V10.9682C20.878 10.8443 20.9041 10.721 20.9596 10.6085C21.015 10.4959 21.0981 10.3973 21.202 10.3208L22.8481 9.10832L22.8726 9.08971C23.1265 8.89122 23.2968 8.61444 23.3532 8.30888C23.4096 8.00331 23.3484 7.68888 23.1804 7.42181L20.9521 3.80297C20.9495 3.79955 20.9472 3.79595 20.9453 3.79219C20.7764 3.52882 20.5146 3.32926 20.2054 3.22818C19.8961 3.12709 19.5589 3.13087 19.2522 3.23884L19.234 3.24521L17.2983 3.97632C17.1761 4.02268 17.044 4.04113 16.9127 4.03015C16.7815 4.01917 16.6549 3.97907 16.5434 3.91315C16.3722 3.81195 16.1983 3.71629 16.0216 3.62619C15.9071 3.56788 15.8087 3.48512 15.7345 3.38457C15.6603 3.28403 15.6122 3.16853 15.5943 3.04737L15.3027 1.10867L15.2964 1.07341C15.2329 0.773128 15.0612 0.502511 14.8102 0.307035C14.5592 0.11156 14.2441 0.00314144 13.918 0H9.45605C9.12529 0.000993358 8.80553 0.111512 8.55308 0.312084C8.30063 0.512657 8.1317 0.790415 8.07604 1.09643L8.07135 1.12385L7.78074 3.06647C7.76291 3.18728 7.71528 3.30251 7.64164 3.403C7.568 3.50348 7.47039 3.58645 7.35656 3.64529C7.17813 3.73539 7.00387 3.83088 6.83482 3.93029C6.72351 3.9958 6.59724 4.0356 6.46636 4.04641C6.33548 4.05722 6.20374 4.03874 6.08195 3.99248L4.14473 3.25794L4.12647 3.25108C3.8194 3.14299 3.48168 3.13936 3.17206 3.24082C2.86244 3.34228 2.60052 3.54241 2.43186 3.8064L2.42507 3.81717L0.193591 7.43846C0.0253975 7.7058 -0.0359903 8.02058 0.0204051 8.32651C0.0768004 8.63243 0.247301 8.90956 0.501418 9.10832L0.52594 9.12693L2.17255 10.3389C2.27683 10.4163 2.36005 10.5159 2.41537 10.6294C2.4707 10.7428 2.49655 10.867 2.49081 10.9917V11.5578C2.49604 11.6817 2.46987 11.8049 2.41445 11.9175C2.35903 12.03 2.27595 12.1286 2.17203 12.2051L0.52594 13.4176L0.501418 13.4362C0.247553 13.6347 0.0771905 13.9115 0.0207954 14.2171C-0.0355998 14.5226 0.0256496 14.8371 0.193591 15.1041L2.42194 18.723C2.42451 18.7264 2.42678 18.73 2.42873 18.7338C2.59757 18.9971 2.85936 19.1967 3.16864 19.2978C3.47792 19.3989 3.81515 19.3951 4.12177 19.2871L4.14003 19.2807L6.07412 18.5496C6.1963 18.5033 6.32846 18.4848 6.45972 18.4958C6.59098 18.5068 6.71758 18.5469 6.82908 18.6128C7.00021 18.7143 7.17413 18.81 7.35082 18.8998C7.46539 18.9581 7.56375 19.0408 7.63797 19.1414C7.71219 19.2419 7.7602 19.3574 7.77813 19.4786L8.06822 21.4173L8.07448 21.4525C8.13808 21.7533 8.31022 22.0243 8.56189 22.2198C8.81355 22.4154 9.12935 22.5235 9.45605 22.5259H13.918C14.2487 22.525 14.5685 22.4144 14.8209 22.2139C15.0734 22.0133 15.2423 21.7355 15.298 21.4295L15.3027 21.4021L15.5933 19.4595C15.6114 19.3384 15.6594 19.2231 15.7335 19.1226C15.8076 19.0221 15.9057 18.9392 16.0201 18.8807C16.1985 18.7906 16.3728 18.6951 16.5418 18.5957C16.6531 18.5301 16.7794 18.4904 16.9103 18.4795C17.0411 18.4687 17.1729 18.4872 17.2947 18.5335L19.2319 19.2656L19.2502 19.2724C19.5572 19.3807 19.895 19.3844 20.2047 19.283C20.5143 19.1815 20.7763 18.9812 20.9448 18.7171C20.9468 18.7134 20.9491 18.7098 20.9515 18.7063L23.1799 15.088C23.3484 14.8207 23.41 14.5058 23.3537 14.1997C23.2974 13.8937 23.1268 13.6164 22.8726 13.4176ZM15.8562 11.4471C15.8182 12.2054 15.5463 12.9371 15.0735 13.553C14.6007 14.169 13.9474 14.6428 13.1931 14.9167C12.4387 15.1906 11.6158 15.253 10.8244 15.0961C10.033 14.9392 9.30724 14.5699 8.73533 14.033C8.16343 13.4962 7.77003 12.815 7.60298 12.0722C7.43593 11.3294 7.50243 10.557 7.79439 9.84901C8.08635 9.14102 8.59119 8.52791 9.24752 8.08422C9.90385 7.64054 10.6834 7.3854 11.4914 7.34983C12.0714 7.32586 12.6504 7.41544 13.1916 7.61287C13.7328 7.8103 14.2242 8.11127 14.6348 8.49663C15.0453 8.88199 15.3659 9.34331 15.5762 9.85126C15.7865 10.3592 15.8818 10.9027 15.8562 11.4471Z" fill="#4169E1"/>
</svg>
